<svg xmlns="http://www.w3.org/2000/svg" viewBox="0 0 512 512" fill="none">
  <rect width="512" height="512" rx="112" fill="#1E3A8A"/>
  <rect x="36" y="36" width="440" height="220" rx="96" fill="#2563EB" opacity="0.28"/>

  <rect x="96" y="128" width="320" height="296" rx="36" fill="#F8FAFC"/>
  <path d="M96 164c0-19.9 16.1-36 36-36h248c19.9 0 36 16.1 36 36v68H96v-68z" fill="#3B82F6"/>

  <rect x="168" y="100" width="28" height="56" rx="14" fill="#93C5FD"/>
  <rect x="316" y="100" width="28" height="56" rx="14" fill="#93C5FD"/>
  <rect x="174" y="106" width="16" height="44" rx="8" fill="#1E3A8A"/>
  <rect x="322" y="106" width="16" height="44" rx="8" fill="#1E3A8A"/>

  <rect x="132" y="260" width="100" height="64" rx="14" fill="#DBEAFE"/>
  <rect x="280" y="260" width="100" height="64" rx="14" fill="#FCE7F3"/>
  <rect x="132" y="340" width="100" height="48" rx="14" fill="#E2E8F0"/>
  <rect x="280" y="340" width="100" height="48" rx="14" fill="#E2E8F0"/>

  <path
    fill="#EF4444"
    d="M256 348c-28-24-72-52-72-96 0-28 20-48 44-48 16 0 28 8 28 8s12-8 28-8c24 0 44 20 44 48 0 44-44 72-72 96z"
  />
</svg>
